<?xml version="1.0" encoding="utf-8"?>
<!-- Generator: Adobe Illustrator 21.0.0, SVG Export Plug-In . SVG Version: 6.00 Build 0)  -->
<svg version="1.1" id="Layer_1" xmlns="http://www.w3.org/2000/svg" xmlns:xlink="http://www.w3.org/1999/xlink" x="0px" y="0px"
	 viewBox="0 0 613.5 512" style="enable-background:new 0 0 613.5 512;" xml:space="preserve">
<style type="text/css">
	.st0{fill:#FFFF64;}
</style>
<g>
	<path class="st0" d="M307,279.6c-39,0-70.5,31.6-70.5,70.5c0,39,31.6,70.5,70.5,70.5c38.9,0,70.5-31.6,70.5-70.5
		C377.6,311.2,346,279.6,307,279.6L307,279.6z M495.1,209h-56.4c-7.8,0-16.1-6-18.6-13.4l-14.6-43.8c-2.5-7.4-10.8-13.4-18.6-13.4
		H227c-7.8,0-16.1,6-18.6,13.4l-14.6,43.8c-2.5,7.4-10.8,13.4-18.6,13.4h-56.4c-25.9,0-47,21.2-47,47v211.6c0,25.9,21.2,47,47,47
		h376.3c25.9,0,47-21.2,47-47V256.1C542.2,230.2,521,209,495.1,209L495.1,209z M307,467.7c-64.9,0-117.6-52.6-117.6-117.6
		c0-64.9,52.6-117.6,117.6-117.6c64.9,0,117.6,52.7,117.6,117.6C424.6,415.1,371.9,467.7,307,467.7L307,467.7z M478.7,289
		c-9.1,0-16.5-7.4-16.5-16.5c0-9.1,7.4-16.4,16.5-16.4c9.1,0,16.5,7.4,16.5,16.4C495.1,281.6,487.8,289,478.7,289L478.7,289z
		 M478.7,289"/>
</g>
</svg>
